<svg xmlns="http://www.w3.org/2000/svg" xmlns:xlink="http://www.w3.org/1999/xlink" width="400" height="400"
  viewBox="0 0 35 35" stroke-width="1.3" stroke="currentColor" fill="none" stroke-linecap="round"
  stroke-linejoin="round">
  <path d="M9 6m0 3a3 3 0 0 1 3 -3h12a3 3 0 0 1 3 3v18a3 3 0 0 1 -3 3h-12a3 3 0 0 1 -3 -3z" />
  <!--top left letter-->
  <g transform="translate(9.7, 7) scale(0.1)" stroke-width="2">
    <path d="M12 12a4 4 0 1 0 -4 -4" />
    <path d="M8 16a4 4 0 1 0 4 -4" />
  </g>
  <!--top left card type-->
  <g transform="translate(9.7, 9) scale(0.1)">
    <use xlink:href="#spade" />
  </g>
  <!--bottom right letter-->
  <g transform="rotate(180, 15, 15) translate(3.7, 1) scale(0.1)" stroke-width="2">
    <path d="M12 12a4 4 0 1 0 -4 -4" />
    <path d="M8 16a4 4 0 1 0 4 -4" />
  </g>
  <!--bottom right card type-->
  <g transform="rotate(180, 15, 15) translate(3.7, 3) scale(0.1)">
    <use xlink:href="#spade" />
  </g>
  <!--card type top-->
  <g transform="translate(15.5, 8) scale(0.2)">
    <use xlink:href="#spade" />
  </g>
  <!--card type mid-->
  <g transform="translate(15.5, 15.5) scale(0.2)">
    <use xlink:href="#spade" />
  </g>
  <!--card type bottom-->
  <g transform="rotate(180, 15, 15) translate(9.75, 2) scale(0.2)">
    <use xlink:href="#spade" />
  </g>
  <defs>
    <path id="spade"
      d="M12 3l4.919 4.5c.61 .587 1.177 1.177 1.703 1.771a5.527 5.527 0 0 1 .264 6.979c-1.18 1.56 -3.338 1.92 -4.886 .75v1l1 3h-6l1 -3v-1c-1.54 1.07 -3.735 .772 -4.886 -.75a5.527 5.527 0 0 1 .264 -6.979a30.883 30.883 0 0 1 1.703 -1.771a1541.72 1541.72 0 0 1 4.919 -4.5z" />
  </defs>
</svg>