<svg xmlns="http://www.w3.org/2000/svg" xmlns:xlink="http://www.w3.org/1999/xlink" width="400" height="400"
  viewBox="0 0 35 35" stroke-width="1.3" stroke="currentColor" fill="none" stroke-linecap="round"
  stroke-linejoin="round">
  <path d="M9 6m0 3a3 3 0 0 1 3 -3h12a3 3 0 0 1 3 3v18a3 3 0 0 1 -3 3h-12a3 3 0 0 1 -3 -3z" />
  <!--top left letter-->
  <g transform="translate(9.7, 7) scale(0.1)" stroke-width="2">
    <path d="M7 4l0 16" />
    <path d="M7 12h2l8 -8" />
    <path d="M9 12l8 8" />
  </g>
  <!--top left card type-->
  <g transform="translate(9.7, 9) scale(0.1)">
    <use xlink:href="#spade" />
  </g>
  <!--bottom right letter-->
  <g transform="rotate(180, 15, 15) translate(3.7, 1) scale(0.1)" stroke-width="2">
    <path d="M7 4l0 16" />
    <path d="M7 12h2l8 -8" />
    <path d="M9 12l8 8" />
  </g>
  <!--bottom right card type-->
  <g transform="rotate(180, 15, 15) translate(3.7, 3) scale(0.1)">
    <use xlink:href="#spade" />
  </g>
  <!--card type center-->
  <g transform="translate(14.5, 14) scale(0.3)">
    <path
      d="M15 19v-2a3 3 0 0 0 -6 0v2a1 1 0 0 1 -1 1h-4a1 1 0 0 1 -1 -1v-14h4v3h3v-3h4v3h3v-3h4v14a1 1 0 0 1 -1 1h-4a1 1 0 0 1 -1 -1z" />
    <path d="M3 11l18 0" />
  </g>
  <defs>
    <path id="spade" d="M19.5 12.572l-7.5 7.428l-7.5 -7.428a5 5 0 1 1 7.5 -6.566a5 5 0 1 1 7.5 6.572" />
  </defs>
</svg>