<svg xmlns="http://www.w3.org/2000/svg" xmlns:xlink="http://www.w3.org/1999/xlink" width="400" height="400"
  viewBox="0 0 35 35" stroke-width="1.3" stroke="currentColor" fill="none" stroke-linecap="round"
  stroke-linejoin="round">
  <path d="M9 6m0 3a3 3 0 0 1 3 -3h12a3 3 0 0 1 3 3v18a3 3 0 0 1 -3 3h-12a3 3 0 0 1 -3 -3z" />
  <!--top left letter-->
  <g transform="translate(9.7, 7) scale(0.1)" stroke-width="2">
    <path d="M8 4h8l-4 16" />
  </g>
  <!--top left card type-->
  <g transform="translate(9.7, 9) scale(0.1)">
    <use xlink:href="#spade" />
  </g>
  <!--bottom right letter-->
  <g transform="rotate(180, 15, 15) translate(3.7, 1) scale(0.1)" stroke-width="2">
    <path d="M8 4h8l-4 16" />
  </g>
  <!--bottom right card type-->
  <g transform="rotate(180, 15, 15) translate(3.7, 3) scale(0.1)">
    <use xlink:href="#spade" />
  </g>
  <!--card type top 1st-->
  <g transform="translate(18.5, 8) scale(0.2)">
    <use xlink:href="#spade" />
  </g>
  <!--card type top 2nd-->
  <g transform="translate(12.5, 8) scale(0.2)">
    <use xlink:href="#spade" />
  </g>
  <!--card type mid 1st-->
  <g transform="translate(12.5, 15.5) scale(0.2)">
    <use xlink:href="#spade" />
  </g>
  <!--card type mid top-->
  <g transform="translate(15.5, 13) scale(0.2)">
    <use xlink:href="#spade" />
  </g>
  <!--card type mid 2nd-->
  <g transform="translate(18.5, 15.5) scale(0.2)">
    <use xlink:href="#spade" />
  </g>
  <!--card type bottom 1st-->
  <g transform="rotate(180, 15, 15) translate(12.75, 2) scale(0.2)">
    <use xlink:href="#spade" />
  </g>
  <!--card type bottom 2nd-->
  <g transform="rotate(180, 15, 15) translate(6.75, 2) scale(0.2)">
    <use xlink:href="#spade" />
  </g>
  <defs>
    <path id="spade" d="M19.5 12.572l-7.5 7.428l-7.5 -7.428a5 5 0 1 1 7.5 -6.566a5 5 0 1 1 7.5 6.572" />
  </defs>
</svg>