<svg xmlns="http://www.w3.org/2000/svg" xmlns:xlink="http://www.w3.org/1999/xlink" width="400" height="400"
  viewBox="0 0 35 35" stroke-width="1.3" stroke="currentColor" fill="none" stroke-linecap="round"
  stroke-linejoin="round">
  <path d="M9 6m0 3a3 3 0 0 1 3 -3h12a3 3 0 0 1 3 3v18a3 3 0 0 1 -3 3h-12a3 3 0 0 1 -3 -3z" />
  <!--top left letter-->
  <g transform="translate(9.7, 7) scale(0.1)" stroke-width="2">
    <path d="M17 4v12a4 4 0 0 1 -4 4h-2a4 4 0 0 1 -4 -4" />
  </g>
  <!--top left card type-->
  <g transform="translate(9.7, 9) scale(0.1)">
    <use xlink:href="#club" />
  </g>
  <!--bottom right letter-->
  <g transform="rotate(180, 15, 15) translate(3.7, 1) scale(0.1)" stroke-width="2">
    <path d="M17 4v12a4 4 0 0 1 -4 4h-2a4 4 0 0 1 -4 -4" />
  </g>
  <!--bottom right card type-->
  <g transform="rotate(180, 15, 15) translate(3.7, 3) scale(0.1)">
    <use xlink:href="#club" />
  </g>
  <!--card type center-->
  <g transform="translate(14.5, 14) scale(0.3)">
    <path d="M4 20h16" />
    <path d="M20 16v-10a2 2 0 0 0 -2 -2h-12a2 2 0 0 0 -2 2v10l4 -6c2.667 1.333 5.333 1.333 8 0l4 6z" />
  </g>
  <defs>
    <path id="club"
      d="M12 3a4 4 0 0 1 3.164 6.447a4 4 0 1 1 -1.164 6.198v1.355l1 4h-6l1 -4l0 -1.355a4 4 0 1 1 -1.164 -6.199a4 4 0 0 1 3.163 -6.446z" />
  </defs>
</svg>