<svg xmlns="http://www.w3.org/2000/svg" class="icon icon-tabler icon-tabler-wash-dry" width="320" height="320" viewBox="0 0 24 24" stroke-width="1.5" stroke="currentColor" fill="none" stroke-linecap="round" stroke-linejoin="round">
  <path stroke="none" d="M0 0h24v24H0z" fill="none"/>
  <path d="M3 3m0 3a3 3 0 0 1 3 -3h12a3 3 0 0 1 3 3v12a3 3 0 0 1 -3 3h-12a3 3 0 0 1 -3 -3z"/>
  <path d="M3 5h18" stroke-width="0.1"/>
  <path d="M3 7h18" stroke-width="0.1"/>
  <path d="M3 9h18" stroke-width="0.3"/>
  <path d="M3 11h18" stroke-width="0.1"/>
  <path d="M3 13h18" stroke-width="0.1"/>
  <path d="M3 15h18" stroke-width="0.3"/>
  <path d="M3 17h18" stroke-width="0.1"/>
  <path d="M3 19h18" stroke-width="0.1"/>
  <path d="M5 3v18" stroke-width="0.1"/>
  <path d="M7 3v18" stroke-width="0.1"/>
  <path d="M9 3v18" stroke-width="0.3"/>
  <path d="M11 3v18" stroke-width="0.1"/>
  <path d="M13 3v18" stroke-width="0.1"/>
  <path d="M15 3v18" stroke-width="0.3"/>
  <path d="M17 3v18" stroke-width="0.1"/>
  <path d="M19 3v18" stroke-width="0.1"/>
<!--Reduced size path placed in the (3,4) cell-->
<!--1-->
  <path d="M10 6.4v-1l-0.3125 0.3125" stroke-width="0.1"/>
<!--2-->
  <path d="M5.8 7.6a0.25 0.25 0 1 1 0.5 0c0 0.06825 -0.03525 0.1265625 -0.0724375 0.1759375l-0.4275625 0.573125h0.5" stroke-width="0.1"/>
<!--3-->
  <path d="M14 16a0.25 0.25 0 1 0 -0.25 -0.25" stroke-width="0.1"/>
  <path d="M13.75 16.25a0.25 0.25 0 1 0 0.25 -0.25" stroke-width="0.1"/>
<!--4-->
  <path d="M18 10.5v-0.9375l-0.5 0.6875h0.625" stroke-width="0.1"/>
<!--5-->
  <path d="M5.75 14.5h0.25a0.25 0.25 0 1 0 0 -0.5h-0.25v-0.5h0.5" stroke-width="0.1"/>
<!--6-->
  <path d="M11.75 12.25a0.25 0.25 0 1 0 0.5 0v-0.0625a0.25 0.25 0 1 0 -0.5 0" stroke-width="0.1"/>
  <path d="M12.25 11.75a0.25 0.25 0 1 0 -0.5 0v0.5" stroke-width="0.1"/>
<!--7-->
  <path d="M7.75 17.5h0.5l-0.25 1" stroke-width="0.1"/>
<!--8-->
  <path d="M16 5.75m-0.25 0a0.25 0.25 0 1 0 0.5 0a0.25 0.25 0 1 0 -0.5 0" stroke-width="0.1"/>
  <path d="M16 6.25m-0.25 0a0.25 0.25 0 1 0 0.5 0a0.25 0.25 0 1 0 -0.5 0" stroke-width="0.1"/>
<!--9-->
  <path d="M16.25 17.75a0.25 0.25 0 1 0 -0.5 0v0.0625a0.25 0.25 0 1 0 0.5 0" stroke-width="0.1"/>
  <path d="M15.75 18.25a0.25 0.25 0 1 0 0.5 0v-0.5" stroke-width="0.1"/>
</svg>
