<svg xmlns="http://www.w3.org/2000/svg" class="icon icon-tabler icon-tabler-wash-dry" width="320" height="320"
    viewBox="0 0 24 24" stroke-width="1.5" stroke="currentColor" fill="none" stroke-linecap="round"
    stroke-linejoin="round">
    <path stroke="none" d="M0 0h24v24H0z" fill="none" />
    <path d="M3 3m0 3a3 3 0 0 1 3 -3h12a3 3 0 0 1 3 3v12a3 3 0 0 1 -3 3h-12a3 3 0 0 1 -3 -3z" />
    <path d="M3 9h18" stroke-width="0.3" />
    <path d="M3 15h18" stroke-width="0.3" />
    <path d="M9 3v18" stroke-width="0.3" />
    <path d="M15 3v18" stroke-width="0.3" />
    <path d="M4 16l4 4" />
    <path d="M4 20l4 -4" />
    <path d="M16 4l4 4" />
    <path d="M16 8l4 -4" />
    <path d="M18 18m-2 0a2 2 0 1 0 4 0a2 2 0 1 0 -4 0" />
    <path d="M12 12m-2 0a2 2 0 1 0 4 0a2 2 0 1 0 -4 0" />
</svg>