<svg xmlns="http://www.w3.org/2000/svg" class="icon icon-tabler icon-tabler-wash-dry" width="320" height="320" viewBox="0 0 24 24" stroke-width="2" stroke="currentColor" fill="none" stroke-linecap="round" stroke-linejoin="round">
    <path stroke="none" d="M0 0h24v24H0z" fill="none"/>
    <svg version="1.1" id="Layer_1" xmlns="http://www.w3.org/2000/svg" xmlns:xlink="http://www.w3.org/1999/xlink" x="3.2px" y="3.2px" viewBox="0 0 700 700"  style="enable-background:new 0 0 512 512;" xml:space="preserve" fill="black">
        <g>
            <g>
<path fill="#000" d="M21 21v58.75h58.75V21H21zm58.75 58.75v58.75h58.75V79.75H79.75zm58.75 0h58.75V21H138.5v58.75zm58.75 0v58.75H256V79.75h-58.75zm58.75 0h58.75V21H256v58.75zm58.75 0v58.75h58.75V79.75h-58.75zm58.75 0h58.75V21H373.5v58.75zm58.75 0v58.75H491V79.75h-58.75zm0 58.75H373.5v58.75h58.75V138.5zm0 58.75V256H491v-58.75h-58.75zm0 58.75H373.5v58.75h58.75V256zm0 58.75v58.75H491v-58.75h-58.75zm0 58.75H373.5v58.75h58.75V373.5zm0 58.75V491H491v-58.75h-58.75zm-58.75 0h-58.75V491h58.75v-58.75zm-58.75 0V373.5H256v58.75h58.75zm-58.75 0h-58.75V491H256v-58.75zm-58.75 0V373.5H138.5v58.75h58.75zm-58.75 0H79.75V491h58.75v-58.75zm-58.75 0V373.5H21v58.75h58.75zm0-58.75h58.75v-58.75H79.75v58.75zm0-58.75V256H21v58.75h58.75zm0-58.75h58.75v-58.75H79.75V256zm0-58.75V138.5H21v58.75h58.75zm58.75 0h58.75V138.5H138.5v58.75zm58.75 0V256H256v-58.75h-58.75zm58.75 0h58.75V138.5H256v58.75zm58.75 0V256h58.75v-58.75h-58.75zm0 58.75H256v58.75h58.75V256zm0 58.75v58.75h58.75v-58.75h-58.75zm-58.75 0h-58.75v58.75H256v-58.75zm-58.75 0V256H138.5v58.75h58.75z"/>
            </g>
        </g>
    </svg>
  <path d="M3 3m0 3a3 3 0 0 1 3 -3h12a3 3 0 0 1 3 3v12a3 3 0 0 1 -3 3h-12a3 3 0 0 1 -3 -3z" />
</svg>
