<svg xmlns="http://www.w3.org/2000/svg" class="icon icon-tabler icon-tabler-wash-dry" width="320" height="320" viewBox="0 0 24 24" stroke-width="1.5" stroke="currentColor" fill="none" stroke-linecap="round" stroke-linejoin="round">
  <path stroke="none" d="M0 0h24v24H0z" fill="none"/>
  <path d="M3 3m0 3a3 3 0 0 1 3 -3h12a3 3 0 0 1 3 3v12a3 3 0 0 1 -3 3h-12a3 3 0 0 1 -3 -3z"/>
  <path d="M3 5h18" stroke-width="0.1"/>
  <path d="M3 7h18" stroke-width="0.1"/>
  <path d="M3 9h18" stroke-width="0.1"/>
  <path d="M3 11h18" stroke-width="0.1"/>
  <path d="M3 13h18" stroke-width="0.1"/>
  <path d="M3 15h18" stroke-width="0.1"/>
  <path d="M3 17h18" stroke-width="0.1"/>
  <path d="M3 19h18" stroke-width="0.1"/>
  <path d="M5 3v18" stroke-width="0.1"/>
  <path d="M7 3v18" stroke-width="0.1"/>
  <path d="M9 3v18" stroke-width="0.1"/>
  <path d="M11 3v18" stroke-width="0.1"/>
  <path d="M13 3v18" stroke-width="0.1"/>
  <path d="M15 3v18" stroke-width="0.1"/>
  <path d="M17 3v18" stroke-width="0.1"/>
  <path d="M19 3v18" stroke-width="0.1"/>
<!--Fill for cell (3,4)-->
  <rect x="7.85" y="7.85" width="0.3" height="0.3" fill="currentColor" stroke-linejoin="miter"/>
  <rect x="7.85" y="9.85" width="0.3" height="0.3" fill="currentColor" stroke-linejoin="miter"/>
  <rect x="7.85" y="9.85" width="0.3" height="0.3" fill="currentColor" stroke-linejoin="miter"/>
  <rect x="9.85" y="9.85" width="0.3" height="0.3" fill="currentColor" stroke-linejoin="miter"/>
  <rect x="9.85" y="11.85" width="0.3" height="0.3" fill="currentColor" stroke-linejoin="miter"/>
  <rect x="7.85" y="9.85" width="0.3" height="0.3" fill="currentColor" stroke-linejoin="miter"/>
  <rect x="11.85" y="9.85" width="0.3" height="0.3" fill="currentColor" stroke-linejoin="miter"/>
  <rect x="11.85" y="11.85" width="0.3" height="0.3" fill="currentColor" stroke-linejoin="miter"/>
  <rect x="9.85" y="13.85" width="0.3" height="0.3" fill="currentColor" stroke-linejoin="miter"/>
  <rect x="7.85" y="11.85" width="0.3" height="0.3" fill="currentColor" stroke-linejoin="miter"/>
  <rect x="11.85" y="11.85" width="0.3" height="0.3" fill="currentColor" stroke-linejoin="miter"/>
  <rect x="11.85" y="13.85" width="0.3" height="0.3" fill="currentColor" stroke-linejoin="miter"/>
  <path d="M14.5 9.5l-1 1" stroke-width="0.1"/>
  <path d="M13.5 9.5l1 1" stroke-width="0.1"/>
  <path d="M16.5 9.5l-1 1" stroke-width="0.1"/>
  <path d="M15.5 9.5l1 1" stroke-width="0.1"/>
  <path d="M16.5 7.5l-1 1" stroke-width="0.1"/>
  <path d="M15.5 7.5l1 1" stroke-width="0.1"/>
  <path d="M14.5 7.5l-1 1" stroke-width="0.1"/>
  <path d="M13.5 7.5l1 1" stroke-width="0.1"/>
  <path d="M12.5 7.5l-1 1" stroke-width="0.1"/>
  <path d="M11.5 7.5l1 1" stroke-width="0.1"/>
  <path d="M14.5 11.5l-1 1" stroke-width="0.1"/>
  <path d="M13.5 11.5l1 1" stroke-width="0.1"/>
  <rect x="15.85" y="15.85" width="0.3" height="0.3" fill="currentColor" stroke-linejoin="miter"/>
  <rect x="15.85" y="17.85" width="0.3" height="0.3" fill="currentColor" stroke-linejoin="miter"/>
  <rect x="17.85" y="15.85" width="0.3" height="0.3" fill="currentColor" stroke-linejoin="miter"/>
  <rect x="17.85" y="17.85" width="0.3" height="0.3" fill="currentColor" stroke-linejoin="miter"/>
</svg>
