<svg xmlns="http://www.w3.org/2000/svg" class="icon icon-tabler icon-tabler-wash-dry" width="320" height="320"
    viewBox="0 0 24 24" stroke-width="2" stroke="currentColor" fill="none" stroke-linecap="round"
    stroke-linejoin="round">
    <path stroke="none" d="M0 0h24v24H0z" fill="none" />
    <svg version="1.1" id="Layer_1" xmlns="http://www.w3.org/2000/svg" xmlns:xlink="http://www.w3.org/1999/xlink"
        x="4.3px" y="4.3px" viewBox="0 0 800 800" style="enable-background:new 0 0 512 512;" xml:space="preserve"
        fill="none">
        <g>
            <path fill="#000000" d="M464.932,85.797H47.068C21.076,85.797,0,106.865,0,132.865v246.271c0,25.991,21.076,47.067,47.068,47.067
		h417.865c25.991,0,47.068-21.076,47.068-47.067V132.865C512,106.865,490.924,85.797,464.932,85.797z M123.254,167.399
		c25.966,0,47.026,21.059,47.026,47.034c0,25.974-21.06,47.025-47.026,47.025c-25.974,0-47.025-21.051-47.025-47.025
		C76.229,188.458,97.28,167.399,123.254,167.399z M123.254,348.916c-32.305,0-65.389-11.187-60.229-42.153
		c2.102-12.576,12.508-30.203,20.407-38.102c1.016-1.017,5.652-1.28,6.915-0.5c9.585,5.907,20.839,9.364,32.907,9.364
		c12.068,0,23.313-3.457,32.898-9.364c1.263-0.78,5.898-0.517,6.924,0.5c7.89,7.899,18.296,25.526,20.398,38.102
		C188.636,337.729,155.551,348.916,123.254,348.916z M366.424,333.492H232.194v-27h134.229V333.492z M446.686,267.068H232.194v-27
		h214.492V267.068z M446.686,200.644H232.194v-27h214.492V200.644z" />
        </g>
    </svg>
    <path d="M3 3m0 3a3 3 0 0 1 3 -3h12a3 3 0 0 1 3 3v12a3 3 0 0 1 -3 3h-12a3 3 0 0 1 -3 -3z" />
</svg>