<svg xmlns="http://www.w3.org/2000/svg" class="icon icon-tabler icon-tabler-wash-dry" width="320" height="320"
    viewBox="0 0 24 24" stroke-width="2" stroke="currentColor" fill="none" stroke-linecap="round"
    stroke-linejoin="round">
    <path stroke="none" d="M0 0h24v24H0z" fill="none" />
    <!--Generator: Adobe Illustrator 19.0.0, SVG Export Plug-In . SVG Version: 6.00 Build 0)-->
    <!--License: CC0. Made by SVG Repo: https://www.svgrepo.com/svg/283900/tetris-->
    <svg version="1.1" id="Layer_1" xmlns="http://www.w3.org/2000/svg" xmlns:xlink="http://www.w3.org/1999/xlink"
        x="5px" y="5px" viewBox="0 0 800 800" style="enable-background:new 0 0 512 512;" xml:space="preserve"
        fill="none">
        <g>
            <g transform="scale(22) translate(-1,-1)">
                <path d="M16 18V20C16 21.1046 15.1046 22 14 22H6C4.89543 22 4 21.1046 4 20V9C4 7.89543 4.89543 7 6 7H8"
                    stroke="currentColor" stroke-width="1.5" stroke-linecap="round" stroke-linejoin="round" />
                <path
                    d="M12 2H18C19.1046 2 20 2.89543 20 4V15C20 16.1046 19.1046 17 18 17H10C8.89543 17 8 16.1046 8 15V4C8 2.89543 8.89543 2 10 2H12Z"
                    stroke="currentColor" stroke-width="1.5" stroke-linecap="round" stroke-linejoin="round" />
                <g transform="scale(0.4) translate(23,11)">
                    <path stroke="none" d="M0 0h24v24H0z" fill="none" />
                    <path
                        d="M12 2a5 5 0 0 0 -4.488 2.797l-.103 .225a4.998 4.998 0 0 0 -.334 2.837l.027 .14a5 5 0 0 0 -3.091 9.009l.198 .14a4.998 4.998 0 0 0 4.42 .58l.174 -.066l-.773 3.095a1 1 0 0 0 .97 1.243h6l.113 -.006a1 1 0 0 0 .857 -1.237l-.774 -3.095l.174 .065a5 5 0 1 0 1.527 -9.727l.028 -.14a4.997 4.997 0 0 0 -4.925 -5.86z"
                        stroke-width="0" fill="currentColor" />
                </g>
            </g>
        </g>
    </svg>
    <path d="M3 3m0 3a3 3 0 0 1 3 -3h12a3 3 0 0 1 3 3v12a3 3 0 0 1 -3 3h-12a3 3 0 0 1 -3 -3z" />
</svg>